<?xml version="1.0" encoding="UTF-8"?>
<svg version="1.1" xmlns="http://www.w3.org/2000/svg" width="500" height="500">
<path d="M0 0 C2.70288431 1.12825712 3.51002512 2.48679407 5.0969696 4.93580627 C5.95289452 6.23769646 5.95289452 6.23769646 6.82611084 7.56588745 C7.43039413 8.51062424 8.03467743 9.45536102 8.65727234 10.4287262 C9.28818283 11.39445053 9.91909332 12.36017487 10.56912231 13.35516357 C12.58742231 16.44947813 14.58943901 19.55394614 16.59086609 22.65919495 C18.59935908 25.75134667 20.61106696 28.84138654 22.62332153 31.93109131 C23.87503902 33.85568762 25.12389182 35.78215077 26.36956787 37.71066284 C26.93703232 38.58804611 27.50449677 39.46542938 28.0891571 40.36940002 C28.58561234 41.13915665 29.08206757 41.90891327 29.59356689 42.70199585 C31.00311399 44.80894879 32.48812184 46.83386987 34.02836609 48.84669495 C32.66749147 52.0629209 31.36643612 53.61280468 28.44462585 55.50270081 C27.70092239 55.99056564 26.95721893 56.47843048 26.190979 56.9810791 C25.3754808 57.50263077 24.5599826 58.02418243 23.71977234 58.5615387 C22.86354782 59.12027176 22.0073233 59.67900482 21.12515259 60.25466919 C19.26444095 61.46773539 17.40100374 62.67662865 15.53520203 63.8818512 C10.49044702 67.14128163 5.46589512 70.43163813 0.43852234 73.7177887 C-0.59835724 74.39437531 -1.63523682 75.07096191 -2.70353699 75.76805115 C-13.03420179 82.51805363 -23.25807399 89.42133964 -33.47163391 96.34669495 C-48.81401044 106.73786692 -64.24271105 116.98834333 -79.73188782 127.15919495 C-93.37915729 136.12374357 -106.95061178 145.19294077 -120.47163391 154.34669495 C-135.81605549 164.73489354 -151.24266301 174.98831179 -166.73188782 185.15919495 C-181.27197297 194.71021177 -195.71981435 204.38958734 -210.12471008 214.14308167 C-225.94464135 224.85101634 -241.86640195 235.39812823 -257.84468079 245.86817932 C-269.31562622 253.39163559 -280.68104065 261.05508792 -291.97163391 268.84669495 C-294.72970715 266.21548939 -296.97022059 263.5937911 -299.07197571 260.41700745 C-299.6490477 259.54930725 -300.22611969 258.68160706 -300.82067871 257.78761292 C-301.43123611 256.85835999 -302.04179352 255.92910706 -302.67085266 254.97169495 C-303.3065065 254.01021545 -303.94216034 253.04873596 -304.59707642 252.05812073 C-305.93662169 250.02892274 -307.27374223 247.99812229 -308.6085968 245.96583557 C-310.6548301 242.85324162 -312.71211924 239.74816531 -314.77046204 236.64356995 C-316.07126643 234.67005582 -317.37141903 232.6961119 -318.67085266 230.72169495 C-319.59579781 229.32781555 -319.59579781 229.32781555 -320.53942871 227.90577698 C-321.10704422 227.03807678 -321.67465973 226.17037659 -322.25947571 225.27638245 C-322.76037216 224.51567444 -323.26126862 223.75496643 -323.77734375 222.97120667 C-324.93720939 220.9079324 -325.52794658 219.16003918 -325.97163391 216.84669495 C-316.86476651 209.96824249 -307.34542264 203.75443448 -297.79951477 197.50978088 C-281.60568273 186.91241864 -265.49559964 176.19899747 -249.47163391 165.34669495 C-234.12770379 154.95778032 -218.70059369 144.7050708 -203.21138 134.53419495 C-189.56411053 125.56964632 -175.99265604 116.50044912 -162.47163391 107.34669495 C-148.03889556 97.57570739 -133.54044274 87.91360463 -118.97163391 78.34669495 C-102.50940691 67.53519305 -86.14352097 56.58991259 -69.83052063 45.55470276 C-55.86114089 36.10660715 -41.84187981 26.73546899 -27.79267883 17.4065094 C-27.0338591 16.90194717 -26.27503937 16.39738495 -25.4932251 15.87753296 C-24.02794335 14.9035594 -22.5617153 13.93100768 -21.0944519 12.96002197 C-17.72905033 10.72444094 -14.40110299 8.45599629 -11.1308136 6.08302307 C-10.5348941 5.65434937 -9.93897461 5.22567566 -9.32499695 4.78401184 C-7.7376581 3.63494069 -6.1615378 2.47041587 -4.58638 1.30470276 C-1.97163391 -0.15330505 -1.97163391 -0.15330505 0 0 Z " fill="#38B6FF" transform="translate(386.9716339111328,0.1533050537109375)"/>
<path d="M0 0 C2.75807324 2.63120555 4.99858668 5.25290384 7.1003418 8.4296875 C7.67741379 9.2973877 8.25448578 10.16508789 8.8490448 11.05908203 C9.4596022 11.98833496 10.07015961 12.91758789 10.69921875 13.875 C11.33487259 14.83647949 11.97052643 15.79795898 12.6254425 16.78857422 C13.96498778 18.81777221 15.30210832 20.84857266 16.63696289 22.88085938 C18.68319618 25.99345332 20.74048533 29.09852963 22.79882812 32.203125 C24.09963251 34.17663912 25.39978512 36.15058305 26.69921875 38.125 C27.31584885 39.05425293 27.93247894 39.98350586 28.5677948 40.94091797 C29.41921806 42.24246826 29.41921806 42.24246826 30.2878418 43.5703125 C30.78873825 44.33102051 31.2896347 45.09172852 31.80570984 45.87548828 C32.96557548 47.93876255 33.55631267 49.68665577 34 52 C24.8931326 58.87845245 15.37378873 65.09226046 5.82788086 71.33691406 C-10.36595118 81.93427631 -26.47603427 92.64769748 -42.5 103.5 C-57.84393012 113.88891463 -73.27104022 124.14162415 -88.76025391 134.3125 C-102.40752338 143.27704863 -115.97897787 152.34624583 -129.5 161.5 C-144.84442158 171.8881986 -160.2710291 182.14161684 -175.76025391 192.3125 C-190.29666371 201.86110258 -204.74187401 211.53661418 -219.14199829 221.28933716 C-235.28039849 232.21607736 -251.53144731 242.96551035 -267.83984375 253.63671875 C-269.17472588 254.51216087 -269.17472588 254.51216087 -270.53657532 255.4052887 C-272.18383466 256.48548106 -273.83246771 257.56358317 -275.48283386 258.63902283 C-279.91604847 261.54805618 -284.10234783 264.58860267 -288.17207336 267.99293518 C-290 269 -290 269 -292.03909302 268.91607666 C-294.63807045 267.70191271 -295.51182909 266.31334169 -297.06860352 263.91088867 C-297.92452843 262.60899849 -297.92452843 262.60899849 -298.79774475 261.2808075 C-299.40202805 260.33607071 -300.00631134 259.39133392 -300.62890625 258.41796875 C-301.57527199 256.96938225 -301.57527199 256.96938225 -302.54075623 255.49153137 C-304.55905622 252.39721681 -306.56107292 249.29274881 -308.5625 246.1875 C-310.57099299 243.09534827 -312.58270087 240.00530841 -314.59495544 236.91560364 C-315.84667294 234.99100733 -317.09552573 233.06454418 -318.34120178 231.1360321 C-318.90866623 230.25864883 -319.47613068 229.38126556 -320.06079102 228.47729492 C-320.55724625 227.7075383 -321.05370148 226.93778168 -321.56520081 226.1446991 C-322.9747479 224.03774616 -324.45975575 222.01282507 -326 220 C-324.63912538 216.78377405 -323.33807003 215.23389026 -320.41625977 213.34399414 C-319.6725563 212.8561293 -318.92885284 212.36826447 -318.16261292 211.86561584 C-317.34711472 211.34406418 -316.53161652 210.82251251 -315.69140625 210.28515625 C-314.83518173 209.72642319 -313.97895721 209.16769012 -313.0967865 208.59202576 C-311.23607486 207.37895956 -309.37263765 206.17006629 -307.50683594 204.96484375 C-302.46208093 201.70541332 -297.43752903 198.41505681 -292.41015625 195.12890625 C-291.37327667 194.45231964 -290.33639709 193.77573303 -289.26809692 193.0786438 C-278.93743212 186.32864131 -268.71355993 179.4253553 -258.5 172.5 C-243.15762347 162.10882803 -227.72892286 151.85835161 -212.23974609 141.6875 C-198.59247662 132.72295137 -185.02102213 123.65375417 -171.5 114.5 C-156.15557842 104.1118014 -140.7289709 93.85838316 -125.23974609 83.6875 C-110.70067396 74.1371486 -96.25375856 64.45856025 -81.84994507 54.70562744 C-65.9416476 43.93766201 -49.92973871 33.33311292 -33.86328125 22.80273438 C-24.52956767 16.6802001 -15.25418858 10.48922169 -6.07885742 4.13134766 C-4.06447132 2.73688325 -2.03848626 1.35899084 0 0 Z " fill="#38B6FF" transform="translate(405,231)"/>
<path d="M0 0 C2.4189598 1.5738604 3.54325772 3.1045775 5.12513733 5.51449585 C5.69898163 6.37911942 6.27282593 7.24374298 6.86405945 8.13456726 C7.4714798 9.07100571 8.07890015 10.00744415 8.70472717 10.97225952 C9.33800934 11.93419724 9.9712915 12.89613495 10.62376404 13.88722229 C11.96116998 15.92283781 13.29403694 17.96144163 14.62269592 20.0027771 C16.65510623 23.12401335 18.70206397 26.23529714 20.75160217 29.3453064 C22.04934885 31.32455284 23.34625211 33.3043526 24.64222717 35.28475952 C25.25369598 36.21512527 25.86516479 37.14549103 26.49516296 38.10404968 C27.06270294 38.97812973 27.63024292 39.85220978 28.21498108 40.7527771 C28.71365692 41.51729691 29.21233276 42.28181671 29.72612 43.06950378 C31.09576198 45.4223786 32.09280278 47.77897714 33.04066467 50.32772827 C23.93379728 57.20618073 14.4144534 63.41998874 4.86854553 69.66464233 C-11.32528651 80.26200458 -27.4353696 90.97542575 -43.45933533 101.82772827 C-57.89161064 111.59938879 -72.3905174 121.26085612 -86.95933533 130.82772827 C-103.51434306 141.69998325 -119.97122253 152.70876264 -136.37730408 163.80429077 C-148.2688348 171.84584358 -160.19380862 179.83453544 -172.14781189 187.78286743 C-180.85526697 193.57403228 -189.54624132 199.3883318 -198.20933533 205.24569702 C-199.08631577 205.83864563 -199.9632962 206.43159424 -200.86685181 207.04251099 C-202.66141178 208.25604937 -204.45594177 209.46963208 -206.2504425 210.68325806 C-224.11214856 222.76277379 -242.05965628 234.70357397 -260.09410095 246.52377319 C-260.96084442 247.09260727 -261.82758789 247.66144135 -262.72059631 248.24751282 C-264.40656259 249.35382091 -266.09344814 250.45872956 -267.78132629 251.56211853 C-271.7831433 254.18911606 -275.74028517 256.85908268 -279.63755798 259.63925171 C-280.73907951 260.4202272 -280.73907951 260.4202272 -281.862854 261.21697998 C-283.23456088 262.1953109 -284.59873202 263.18432948 -285.9536438 264.18579102 C-290.41204124 267.36305515 -290.41204124 267.36305515 -292.96607971 267.19819641 C-295.62246345 266.03813576 -296.45640253 264.66385088 -298.02793884 262.23861694 C-298.88386375 260.93672676 -298.88386375 260.93672676 -299.75708008 259.60853577 C-300.36136337 258.66379898 -300.96564667 257.71906219 -301.58824158 256.74569702 C-302.21915207 255.77997269 -302.85006256 254.81424835 -303.50009155 253.81925964 C-305.51839155 250.72494508 -307.52040825 247.62047708 -309.52183533 244.51522827 C-311.53032832 241.42307655 -313.5420362 238.33303668 -315.55429077 235.24333191 C-316.80600826 233.3187356 -318.05486106 231.39227245 -319.30053711 229.46376038 C-319.86800156 228.58637711 -320.435466 227.70899384 -321.02012634 226.80502319 C-321.51658157 226.03526657 -322.0130368 225.26550995 -322.52453613 224.47242737 C-323.93633349 222.28039195 -323.93633349 222.28039195 -325.70553589 220.23539734 C-326.1192897 219.60586655 -326.53304352 218.97633575 -326.95933533 218.32772827 C-325.83582848 214.95720772 -325.34259779 214.63438885 -322.48912048 212.7852478 C-321.74534149 212.29730743 -321.0015625 211.80936707 -320.23524475 211.30664062 C-319.41458527 210.77992767 -318.59392578 210.25321472 -317.74839783 209.71054077 C-316.89075836 209.15039276 -316.0331189 208.59024475 -315.14949036 208.01312256 C-313.28244895 206.79462821 -311.41304686 205.5797453 -309.54161072 204.36801147 C-304.48482758 201.09297939 -299.44572106 197.79093182 -294.40464783 194.49179077 C-293.36467651 193.81211243 -292.3247052 193.13243408 -291.2532196 192.43215942 C-280.91776733 185.66802136 -270.68317645 178.75890492 -260.45933533 171.82772827 C-245.84199618 161.92757186 -231.15252088 152.14543205 -216.39683533 142.45272827 C-203.51149941 133.98660456 -190.65585191 125.48328018 -177.89683533 116.82772827 C-177.22367279 116.37111816 -176.55051025 115.91450806 -175.85694885 115.44406128 C-172.38060472 113.08527452 -168.90540915 110.72480046 -165.43052673 108.36386108 C-156.99033876 102.63085888 -148.53973061 96.91327332 -140.08433533 91.20272827 C-138.73237564 90.28958862 -138.73237564 90.28958862 -137.35310364 89.35800171 C-122.71045082 79.47442702 -107.98388065 69.72357384 -93.2169342 60.02694702 C-80.17353024 51.4599767 -67.19456651 42.80408722 -54.26893616 34.0604248 C-48.96220065 30.47180365 -43.65004181 26.89121117 -38.33850098 23.30970764 C-34.3327407 20.60773869 -30.32982682 17.90179701 -26.33433533 15.18466187 C-22.86768356 12.82782949 -19.39151177 10.48585523 -15.90657043 8.15615845 C-14.66400578 7.32155835 -13.42522199 6.48129754 -12.19056702 5.63504028 C-10.53099739 4.49839769 -8.85689752 3.38305454 -7.18199158 2.26913452 C-6.26168152 1.64724243 -5.34137146 1.02535034 -4.39317322 0.38461304 C-1.95933533 -0.67227173 -1.95933533 -0.67227173 0 0 Z " fill="#38B6FF" transform="translate(405.95933532714844,116.67227172851563)"/>
</svg>
